<svg width="40" height="40" viewBox="0 0 40 40" fill="none" xmlns="http://www.w3.org/2000/svg">
<path d="M31.6667 5H8.33333C6.49238 5 5 6.49238 5 8.33333V31.6667C5 33.5076 6.49238 35 8.33333 35H31.6667C33.5076 35 35 33.5076 35 31.6667V8.33333C35 6.49238 33.5076 5 31.6667 5Z" stroke="#767676" stroke-width="2" stroke-linecap="round" stroke-linejoin="round"/>
<path d="M14.1665 16.6665C15.5472 16.6665 16.6665 15.5472 16.6665 14.1665C16.6665 12.7858 15.5472 11.6665 14.1665 11.6665C12.7858 11.6665 11.6665 12.7858 11.6665 14.1665C11.6665 15.5472 12.7858 16.6665 14.1665 16.6665Z" stroke="#767676" stroke-width="2" stroke-linecap="round" stroke-linejoin="round"/>
<path d="M35.0002 24.9998L26.6668 16.6665L8.3335 34.9998" stroke="#767676" stroke-width="2" stroke-linecap="round" stroke-linejoin="round"/>
</svg>
