<svg width="30" height="30" viewBox="0 0 30 30" fill="none" xmlns="http://www.w3.org/2000/svg">
<path d="M25.2129 22.7949C25.582 23.2051 25.582 23.8203 25.1719 24.1895L24.0234 25.3379C23.6543 25.748 23.0391 25.748 22.6289 25.3379L18.5684 21.2773C18.3633 21.0723 18.2812 20.8262 18.2812 20.5801V19.8828C16.8047 21.0312 15 21.6875 13.0312 21.6875C8.31445 21.6875 4.5 17.873 4.5 13.1562C4.5 8.48047 8.31445 4.625 13.0312 4.625C17.707 4.625 21.5625 8.48047 21.5625 13.1562C21.5625 15.166 20.8652 16.9707 19.7578 18.4062H20.4141C20.6602 18.4062 20.9062 18.5293 21.1113 18.6934L25.2129 22.7949ZM13.0312 18.4062C15.9023 18.4062 18.2812 16.0684 18.2812 13.1562C18.2812 10.2852 15.9023 7.90625 13.0312 7.90625C10.1191 7.90625 7.78125 10.2852 7.78125 13.1562C7.78125 16.0684 10.1191 18.4062 13.0312 18.4062Z" fill="#90CAF9"/>
</svg>
